<?xml version="1.0" encoding="utf-8"?>
<svg version="1.1" xmlns="http://www.w3.org/2000/svg" xmlns:xlink="http://www.w3.org/1999/xlink" x="0px" y="0px"
	 viewBox="0 0 200 200" style="enable-background:new 0 0 200 200;" xml:space="preserve">
<style type="text/css">
	path{fill:#366284;}
</style>
<g id="background">
	<path d="M68.9,32.2c-2.2,0.9-5.7,1.4-10.1-1.1c-2.4-1.4-4.4-3.2-5.6-4.3c-1-0.9-2.4-2.3-3.9-3.1
		c-1.2-0.7-2-0.9-2.6-0.6s-1.1,1-1.4,2.3c-0.5,1.7-0.5,3.7-0.5,5c0,1.6-0.1,4.3-0.8,7c-1.3,4.9-4.2,7-6.4,7.9s-5.7,1.4-10.1-1.1
		C25,42.9,23,41,21.8,39.9c-1-0.9-2.4-2.3-3.9-3.1c-1.2-0.7-2-0.9-2.6-0.6c-0.6,0.2-1.1,1-1.4,2.3c-0.5,1.7-0.5,3.7-0.5,5l-8.5-0.2
		c0-1.6,0.1-4.3,0.8-7c1.3-4.9,4.2-7,6.4-7.9c2.2-0.9,5.7-1.4,10.1,1.1c2.4,1.4,4.4,3.2,5.6,4.3c1,0.9,2.4,2.3,3.9,3.1
		c1.2,0.7,2,0.9,2.6,0.6c0.6-0.2,1.1-1,1.4-2.3c0.5-1.7,0.5-3.7,0.5-5c0-1.6,0.1-4.3,0.8-7c1.3-4.9,4.2-7,6.4-7.9
		c2.2-0.9,5.7-1.4,10.1,1.1c2.4,1.4,4.4,3.2,5.6,4.3c1,0.9,2.4,2.3,3.9,3.1c1.2,0.7,2,0.9,2.6,0.6c0.6-0.2,1.1-1,1.4-2.3
		c0.5-1.7,0.5-3.7,0.5-5l8.5,0.2c0,1.6-0.1,4.3-0.8,7C73.9,29.2,71,31.3,68.9,32.2z"/>
	<path d="M174.8,164.3c-2,1.2-5.4,2.3-10.1,0.5c-2.6-1-4.8-2.5-6.2-3.4c-1.1-0.7-2.7-1.9-4.4-2.5
		c-1.2-0.5-2.1-0.5-2.7-0.2s-0.9,1.2-1,2.5c-0.2,1.7,0.1,3.7,0.2,5c0.2,1.6,0.6,4.3,0.3,7.1c-0.6,5.1-3,7.6-5,8.8
		c-2,1.2-5.4,2.3-10.1,0.5c-2.6-1-4.8-2.5-6.2-3.4c-1.1-0.7-2.7-1.9-4.4-2.5c-1.2-0.5-2.1-0.5-2.7-0.2c-0.5,0.3-0.9,1.2-1,2.5
		c-0.2,1.7,0.1,3.7,0.2,5l-8.4,1.1c-0.2-1.6-0.6-4.3-0.3-7.1c0.6-5.1,3-7.6,5-8.8c2-1.2,5.4-2.3,10.1-0.5c2.6,1,4.8,2.5,6.2,3.4
		c1.1,0.7,2.7,1.9,4.4,2.5c1.2,0.5,2.1,0.5,2.7,0.2c0.5-0.3,0.9-1.2,1-2.5c0.2-1.7-0.1-3.7-0.2-5c-0.2-1.6-0.6-4.3-0.3-7.1
		c0.6-5.1,3-7.6,5-8.8s5.4-2.3,10.1-0.5c2.6,1,4.8,2.5,6.2,3.4c1.1,0.7,2.7,1.9,4.4,2.5c1.2,0.5,2.1,0.5,2.7,0.2s0.9-1.2,1-2.5
		c0.2-1.7-0.1-3.7-0.2-5l8.4-1.1c0.2,1.6,0.6,4.3,0.3,7.1C179.3,160.6,176.8,163.1,174.8,164.3z"/>
	<path d="M182.6,20c0.2,2.3-0.3,5.8-4,9.3c-2,1.9-4.4,3.2-5.8,4c-1.2,0.6-2.9,1.6-4.2,2.8c-1,0.9-1.4,1.7-1.4,2.3
		c0.1,0.6,0.7,1.3,1.8,2c1.5,0.9,3.4,1.6,4.6,2c1.5,0.5,4.1,1.4,6.4,2.9c4.3,2.8,5.4,6.1,5.6,8.4s-0.3,5.8-4,9.3
		c-2,1.9-4.4,3.2-5.8,4c-1.2,0.6-2.9,1.6-4.2,2.8c-1,0.9-1.4,1.7-1.4,2.3c0.1,0.6,0.7,1.3,1.8,2c1.5,0.9,3.4,1.6,4.6,2l-2.8,8
		c-1.5-0.5-4.1-1.4-6.4-2.9c-4.3-2.8-5.4-6.1-5.6-8.4s0.3-5.8,4-9.3c2-1.9,4.4-3.2,5.8-4c1.2-0.6,2.9-1.6,4.2-2.8
		c1-0.9,1.4-1.7,1.4-2.3s-0.7-1.3-1.8-2c-1.5-0.9-3.4-1.6-4.6-2c-1.5-0.5-4.1-1.4-6.4-2.9c-4.3-2.8-5.4-6.1-5.6-8.4
		c-0.2-2.3,0.3-5.8,4-9.3c2-1.9,4.4-3.2,5.8-4c1.2-0.6,2.9-1.6,4.2-2.8c1-0.9,1.4-1.7,1.4-2.3c-0.1-0.6-0.7-1.3-1.8-2
		c-1.5-0.9-3.4-1.6-4.6-2l2.8-8c1.5,0.5,4.1,1.4,6.4,2.9C181.3,14.3,182.4,17.7,182.6,20z"/>
	<path d="M0,124.4c1.1,1.1,2.2,2.6,3,4.6c1,2.6,1.4,5.3,1.6,6.9c0.2,1.3,0.5,3.3,1.1,4.9c0.5,1.2,1.1,1.9,1.7,2.1
		s1.5-0.1,2.5-0.9c1.4-1,2.7-2.6,3.6-3.6c1-1.2,2.8-3.3,5-4.9c4.1-3,7.7-2.9,9.9-2.2s5.3,2.4,7.2,7.1c1,2.6,1.4,5.3,1.6,6.9
		c0.2,1.3,0.5,3.3,1.1,4.9c0.5,1.2,1.1,1.9,1.7,2.1c0.6,0.2,1.5-0.1,2.5-0.9c1.4-1,2.7-2.6,3.6-3.6l6.5,5.5c-1,1.2-2.8,3.3-5,4.9
		c-4.1,3-7.7,2.9-9.9,2.2c-2.2-0.6-5.3-2.4-7.2-7.1c-1-2.6-1.4-5.3-1.6-6.9c-0.2-1.3-0.5-3.3-1.1-4.9c-0.5-1.2-1.1-1.9-1.7-2.1
		s-1.5,0.1-2.5,0.9c-1.4,1-2.7,2.6-3.6,3.6c-1,1.2-2.8,3.3-5,4.9c-4.1,3-7.7,2.9-9.9,2.2c-1.5-0.4-3.4-1.4-5.1-3.4L0,124.4z"/>
	<path d="M200,147.8c-0.8-1-1.5-2.2-2.2-3.7c-1-2.6-1.4-5.3-1.6-6.9c-0.2-1.3-0.5-3.3-1.1-4.9c-0.5-1.2-1.1-1.9-1.7-2.1
		c-0.6-0.2-1.5,0.1-2.5,0.9c-1.4,1-2.7,2.6-3.6,3.6l-6.5-5.5c1-1.2,2.8-3.3,5-4.9c4.1-3,7.7-2.9,9.9-2.2c1.3,0.4,2.8,1.1,4.2,2.5
		L200,147.8z"/>
	<path id="rot" d="M71.3,66.4c-0.4,2.3-1.9,5.5-6.4,7.9c-2.5,1.3-5.1,1.9-6.7,2.3C57,77,55,77.5,53.5,78.3
		c-1.2,0.6-1.8,1.2-1.9,1.9s0.3,1.5,1.2,2.4c1.2,1.3,2.8,2.4,3.9,3.2c1.3,0.9,3.6,2.4,5.4,4.5c3.4,3.8,3.6,7.3,3.2,9.6
		s-1.9,5.5-6.4,7.9c-2.5,1.3-5.1,1.9-6.7,2.3c-1.3,0.3-3.2,0.8-4.8,1.6c-1.2,0.6-1.8,1.2-1.9,1.9c-0.1,0.6,0.3,1.5,1.2,2.4
		c1.2,1.3,2.8,2.4,3.9,3.2l-4.8,7c-1.3-0.9-3.6-2.4-5.4-4.5c-3.4-3.8-3.6-7.3-3.2-9.6c0.4-2.3,1.9-5.5,6.4-7.9
		c2.5-1.3,5.1-1.9,6.7-2.3c1.3-0.3,3.2-0.8,4.8-1.6c1.2-0.6,1.8-1.2,1.9-1.9c0.1-0.6-0.3-1.5-1.2-2.4c-1.2-1.3-2.8-2.4-3.9-3.2
		c-1.3-0.9-3.6-2.4-5.4-4.5c-3.4-3.8-3.6-7.3-3.2-9.6c0.4-2.3,1.9-5.5,6.4-7.9c2.5-1.3,5.1-1.9,6.7-2.3c1.3-0.3,3.2-0.8,4.8-1.6
		c1.2-0.6,1.8-1.2,1.9-1.9s-0.3-1.5-1.2-2.4c-1.2-1.3-2.8-2.4-3.9-3.2l4.8-7c1.3,0.9,3.6,2.4,5.4,4.5C71.5,60.6,71.7,64.1,71.3,66.4
		z">
    </path>
	<path d="M85.4,0c-0.2,1.3-0.7,2.7-1,3.6c-0.5,1.5-1.3,4.1-1.5,6.9c-0.3,5.1,1.7,8,3.4,9.5c1.8,1.6,4.9,3.2,9.9,2.3
		c2.7-0.5,5.2-1.6,6.7-2.3c1.2-0.5,3-1.4,4.7-1.7c1.3-0.2,2.2-0.2,2.7,0.3c0.5,0.4,0.7,1.3,0.6,2.6c-0.1,1.7-0.7,3.6-1.1,4.9
		c-0.5,1.5-1.3,4.1-1.5,6.9c-0.3,5.1,1.7,8,3.4,9.5c1.8,1.6,4.9,3.2,9.9,2.3c2.7-0.5,5.2-1.6,6.7-2.3l-3.5-7.7
		c-1.2,0.5-3,1.4-4.7,1.7c-1.3,0.2-2.2,0.2-2.7-0.3c-0.5-0.4-0.7-1.3-0.6-2.6c0.1-1.7,0.7-3.6,1.1-4.9c0.5-1.5,1.3-4.1,1.5-6.9
		c0.3-5.1-1.7-8-3.4-9.5c-1.8-1.6-4.9-3.2-9.9-2.3c-2.7,0.5-5.2,1.6-6.7,2.3c-1.2,0.5-3,1.4-4.7,1.7c-1.3,0.2-2.2,0.2-2.7-0.3
		c-0.5-0.4-0.7-1.3-0.6-2.6c0.1-1.7,0.7-3.6,1.1-4.9C93,4.8,93.7,2.5,94,0L85.4,0z"/>
	<path d="M94,200c0-0.2,0-0.5,0.1-0.7c0.3-5.1-1.7-8-3.4-9.5c-1.8-1.6-4.9-3.2-9.9-2.3c-2.7,0.5-5.2,1.6-6.7,2.3
		l3.5,7.7c1.2-0.5,3-1.4,4.7-1.7c1.3-0.2,2.2-0.2,2.7,0.3c0.5,0.4,0.7,1.3,0.6,2.6c0,0.4-0.1,0.9-0.2,1.3"/>
	<path d="M94.4,94.1c2.3,0.3,5.6,1.7,8.1,6.1c1.4,2.4,2.1,5,2.6,6.6c0.4,1.3,0.9,3.2,1.8,4.7c0.7,1.2,1.3,1.8,1.9,1.9
		c0.6,0.1,1.4-0.3,2.4-1.2c1.3-1.2,2.3-2.9,3-4c0.9-1.4,2.3-3.7,4.3-5.6c3.7-3.5,7.2-3.9,9.5-3.5s5.6,1.7,8.1,6.1
		c1.4,2.4,2.1,5,2.6,6.6c0.4,1.3,0.9,3.2,1.8,4.7c0.7,1.2,1.3,1.8,1.9,1.9c0.6,0.1,1.4-0.3,2.4-1.2c1.3-1.2,2.3-2.9,3-4l7.2,4.5
		c-0.9,1.4-2.3,3.7-4.3,5.6c-3.7,3.5-7.2,3.9-9.5,3.5s-5.6-1.7-8.1-6.1c-1.4-2.4-2.1-5-2.6-6.6c-0.4-1.3-0.9-3.2-1.8-4.7
		c-0.7-1.2-1.3-1.8-1.9-1.9c-0.6-0.1-1.4,0.3-2.4,1.2c-1.3,1.2-2.3,2.9-3,4c-0.9,1.4-2.3,3.7-4.3,5.6c-3.7,3.5-7.2,3.9-9.5,3.5
		c-2.3-0.3-5.6-1.7-8.1-6.1c-1.4-2.4-2.1-5-2.6-6.6c-0.4-1.3-0.9-3.2-1.8-4.7c-0.7-1.2-1.3-1.8-1.9-1.9c-0.6-0.1-1.4,0.3-2.4,1.2
		c-1.3,1.2-2.3,2.9-3,4l-7.2-4.5c0.9-1.4,2.3-3.7,4.3-5.6C88.5,94.1,92.1,93.7,94.4,94.1z"/>
</g>
</svg>